<svg width="121" height="44" viewBox="0 0 121 44" fill="none" xmlns="http://www.w3.org/2000/svg">
<g clip-path="url(#clip0_242_9)">
<path d="M109.085 35.146C107.439 35.146 105.96 34.837 104.65 34.219C103.374 33.6003 102.349 32.7703 101.576 31.729C100.836 30.6557 100.467 29.419 100.467 28.019C100.467 26.197 101.072 24.7163 102.281 23.577C103.491 22.4377 105.221 21.6567 107.472 21.234L113.369 20.063C114.545 19.835 115.351 19.477 115.788 18.989C116.225 18.501 116.443 17.785 116.443 16.841L117.047 22.552L108.581 24.31C107.439 24.5367 106.549 24.9433 105.91 25.53C105.306 26.1167 105.003 26.93 105.003 27.97C105.003 29.044 105.423 29.9067 106.263 30.558C107.137 31.208 108.312 31.5333 109.79 31.534C111 31.534 112.109 31.2737 113.117 30.753C114.158 30.233 114.964 29.517 115.536 28.605C116.141 27.661 116.443 26.587 116.443 25.383V16.841C116.443 15.669 116.006 14.7577 115.132 14.107C114.292 13.4237 113.133 13.082 111.655 13.082C109.774 13.082 108.329 13.5377 107.321 14.449C106.313 15.3603 105.725 16.6457 105.557 18.305L101.122 17.72C101.29 15.9947 101.828 14.514 102.735 13.278C103.643 12.0087 104.852 11.032 106.363 10.348C107.875 9.66533 109.673 9.324 111.756 9.324C114.712 9.324 116.98 10.056 118.559 11.52C120.139 12.984 120.928 14.8717 120.928 17.183V34.413H116.544V31.241C116.107 32.3143 115.217 33.2417 113.873 34.023C112.562 34.7717 110.966 35.146 109.085 35.146ZM64.7352 34.414V10.056H69.1192V12.79C69.4552 11.846 70.1946 11.0323 71.3372 10.349C72.4799 9.66567 73.8066 9.324 75.3172 9.324C76.7972 9.324 78.1582 9.633 79.4002 10.251C80.6436 10.8697 81.4499 11.7973 81.8192 13.034C82.2559 11.894 83.0626 10.999 84.2392 10.349C85.4479 9.66567 86.7912 9.324 88.2692 9.324C90.8232 9.324 92.7722 10.04 94.1162 11.472C95.4602 12.9033 96.1322 14.986 96.1322 17.72V34.414H91.6462V18.305C91.6462 16.6783 91.2769 15.4583 90.5382 14.645C89.8316 13.7983 88.7899 13.375 87.4132 13.375C85.9012 13.375 84.7252 13.8957 83.8852 14.937C83.0786 15.947 82.6752 17.4277 82.6752 19.379V34.414H78.1912V18.305C78.1912 16.6783 77.8212 15.4583 77.0812 14.645C76.3766 13.7983 75.3352 13.375 73.9572 13.375C72.4452 13.375 71.2692 13.8957 70.4292 14.937C69.6226 15.947 69.2192 17.4277 69.2192 19.379V34.414H64.7352ZM47.5842 43.2C44.4596 43.2 41.9229 42.5003 39.9742 41.101C38.0256 39.7017 36.7822 37.7493 36.2442 35.244L40.6292 34.316C40.9992 35.9107 41.7889 37.1473 42.9982 38.026C44.2076 38.9373 45.7362 39.393 47.5842 39.393C49.8009 39.393 51.4639 38.8397 52.5732 37.733C53.7152 36.6597 54.2862 35.049 54.2862 32.901V29.044C53.7829 30.2473 52.8422 31.224 51.4642 31.974C50.1202 32.722 48.6086 33.096 46.9292 33.096C44.7112 33.096 42.7626 32.608 41.0832 31.632C39.4032 30.622 38.0929 29.2227 37.1522 27.434C36.2116 25.644 35.7412 23.5773 35.7412 21.234C35.7412 18.8587 36.2112 16.776 37.1512 14.986C38.0926 13.196 39.3862 11.813 41.0322 10.837C42.7122 9.82833 44.6779 9.324 46.9292 9.324C48.6092 9.324 50.1379 9.698 51.5152 10.446C52.9252 11.162 53.8826 12.057 54.3872 13.131V10.056H58.7722V32.9C58.7722 35.0467 58.3356 36.8853 57.4622 38.416C56.5889 39.978 55.3122 41.1657 53.6322 41.979C51.9856 42.7923 49.9696 43.2 47.5842 43.2ZM47.4832 29.239C49.6332 29.239 51.3466 28.5067 52.6232 27.042C53.9332 25.578 54.5886 23.6417 54.5892 21.233C54.5892 18.793 53.9339 16.8407 52.6232 15.376C51.3126 13.9113 49.5992 13.179 47.4832 13.179C45.3332 13.179 43.6029 13.9113 42.2922 15.376C41.0156 16.8407 40.3772 18.793 40.3772 21.233C40.3772 23.641 41.0322 25.5777 42.3422 27.043C43.6529 28.5063 45.3672 29.2383 47.4832 29.239ZM26.6892 34.414V10.056H31.1752V34.414H26.6892ZM26.6392 6.932V0H31.2252V6.932H26.6392ZM0.928223 34.414V0H5.66522V34.414H0.928223ZM1.88622 19.867V15.718H21.1872V19.868L1.88622 19.867ZM1.88622 4.198V0H23.0522V4.198H1.88622Z" fill="white"/>
</g>
<defs>
<clipPath id="clip0_242_9">
<rect width="120" height="44" fill="white" transform="translate(0.928223)"/>
</clipPath>
</defs>
</svg>
