<svg width="130" height="46" viewBox="0 0 130 46" fill="none" xmlns="http://www.w3.org/2000/svg">
<path d="M9.87008 31.228C10.7945 31.228 11.0159 31.1906 11.5701 31.1906C13.3816 31.1906 14.6749 32.3881 14.6749 34.1854C14.6749 36.2067 12.9009 37.5919 10.3508 37.5919C7.83766 37.5919 5.54597 36.2814 4.21524 34.185L1 37.1051C2.77402 40.0252 6.21112 41.7843 10.2398 41.7843C15.6358 41.7843 19.3318 38.6025 19.3318 34.0729C19.3318 31.5274 18.1859 29.2811 16.3749 28.3826V28.2705C17.7422 27.2973 18.6666 25.4256 18.6666 23.3292C18.6666 21.5696 18.0015 20.0348 16.8556 18.8743H17.5947L19.2948 15.5799V15.3926H10.2768C5.36109 15.3926 1.85003 18.6495 1.85003 23.2914C1.85003 27.8962 5.36108 31.228 9.87008 31.228ZM6.396 23.2918C6.396 21.195 8.02211 19.5106 10.2398 19.5106C12.4946 19.5106 14.1576 21.2328 14.1576 23.2918C14.1576 25.463 12.4941 27.1099 10.2398 27.1099C7.98513 27.1099 6.396 25.4634 6.396 23.2918Z" fill="white"/>
<path d="M32.5256 15.3926C30.4558 15.3926 28.7188 16.1415 27.8692 17.4516H27.6843V15.3926H22.7686V34.2976H27.8318V23.7404C27.8318 21.3449 29.6428 19.7353 32.5256 19.7353V15.3926Z" fill="white"/>
<path d="M44.7929 33.0997L44.9408 34.2976H49.5607V21.3075C49.5607 16.7401 47.306 14.9062 41.5402 14.9062C39.8032 14.9062 38.1401 15.0557 36.514 15.4678L35.9224 19.7354C37.2161 19.2485 39.0641 18.9117 40.7272 18.9117C43.3512 18.9117 44.5341 19.8097 44.5341 21.6818V22.6924C43.4991 21.9439 42.0209 21.4945 40.3204 21.4945C36.1812 21.4945 33.2983 24.1525 33.2983 28.1205C33.2983 32.0891 36.1447 34.8592 40.2099 34.8592C42.1319 34.8592 43.684 34.2228 44.608 33.0997H44.7929ZM38.1031 28.0458C38.1031 26.3236 39.5078 25.0509 41.4663 25.0509C43.3882 25.0509 44.7559 26.3236 44.7559 28.0458C44.7559 29.8427 43.3886 31.1154 41.4667 31.1154C39.5078 31.1154 38.1031 29.8427 38.1031 28.0458Z" fill="white"/>
<path d="M69.7296 34.2976V21.0829C69.7296 17.3769 67.2531 14.831 63.4832 14.831C61.2289 14.831 59.307 15.7673 58.42 17.1148H58.272V15.3926H53.3193V34.2976H58.383V22.9546C58.383 20.5965 59.6767 19.099 61.7461 19.099C63.5941 19.099 64.703 20.3344 64.703 22.5803V34.2976H69.7296Z" fill="white"/>
<path d="M72.5337 24.8266C72.5337 30.7038 76.6359 34.8592 82.5866 34.8592C88.5368 34.8592 92.6395 30.7038 92.6395 24.8262C92.6395 18.9868 88.5368 14.8314 82.5866 14.8314C76.6359 14.8314 72.5337 18.9864 72.5337 24.8266ZM77.1906 24.7888C77.1906 21.4949 79.4449 19.0612 82.5866 19.0612C85.7279 19.0612 87.9826 21.4944 87.9826 24.7888C87.9826 28.1957 85.7279 30.629 82.5866 30.629C79.4449 30.629 77.1906 28.1957 77.1906 24.7888Z" fill="white"/>
<path d="M100.702 7.90588H95.6392V34.2976H100.702V7.90588Z" fill="white"/>
<path d="M115.232 33.0997L115.38 34.2976H120V21.3075C120 16.7401 117.745 14.9062 111.98 14.9062C110.243 14.9062 108.58 15.0557 106.953 15.4678L106.362 19.7354C107.656 19.2485 109.504 18.9117 111.167 18.9117C113.791 18.9117 114.974 19.8097 114.974 21.6818V22.6924C113.939 21.9439 112.46 21.4945 110.76 21.4945C106.621 21.4945 103.738 24.1525 103.738 28.1205C103.738 32.0891 106.584 34.8592 110.649 34.8592C112.571 34.8592 114.123 34.2228 115.047 33.0997H115.232ZM108.543 28.0458C108.543 26.3236 109.947 25.0509 111.906 25.0509C113.828 25.0509 115.195 26.3236 115.195 28.0458C115.195 29.8427 113.828 31.1154 111.906 31.1154C109.947 31.1154 108.543 29.8427 108.543 28.0458Z" fill="url(#paint0_linear_242_3)"/>
<path d="M129 3.80065C129 2.25389 127.745 1 126.198 1C124.65 1 123.395 2.25389 123.395 3.80065V42.1994C123.395 43.7461 124.65 45 126.198 45C127.745 45 129 43.7461 129 42.1994V3.80065Z" fill="white"/>
<path d="M9.87008 31.228C10.7945 31.228 11.0159 31.1906 11.5701 31.1906C13.3816 31.1906 14.6749 32.3881 14.6749 34.1854C14.6749 36.2067 12.9009 37.5919 10.3508 37.5919C7.83766 37.5919 5.54597 36.2814 4.21524 34.185L1 37.1051C2.77402 40.0252 6.21112 41.7843 10.2398 41.7843C15.6358 41.7843 19.3318 38.6025 19.3318 34.0729C19.3318 31.5274 18.1859 29.2811 16.3749 28.3826V28.2705C17.7422 27.2973 18.6666 25.4256 18.6666 23.3292C18.6666 21.5696 18.0015 20.0348 16.8556 18.8743H17.5947L19.2948 15.5799V15.3926H10.2768C5.36109 15.3926 1.85003 18.6495 1.85003 23.2914C1.85003 27.8962 5.36108 31.228 9.87008 31.228ZM6.396 23.2918C6.396 21.195 8.02211 19.5106 10.2398 19.5106C12.4946 19.5106 14.1576 21.2328 14.1576 23.2918C14.1576 25.463 12.4941 27.1099 10.2398 27.1099C7.98513 27.1099 6.396 25.4634 6.396 23.2918Z" stroke="white" stroke-width="0.602804"/>
<path d="M32.5256 15.3926C30.4558 15.3926 28.7188 16.1415 27.8692 17.4516H27.6843V15.3926H22.7686V34.2976H27.8318V23.7404C27.8318 21.3449 29.6428 19.7353 32.5256 19.7353V15.3926Z" stroke="white" stroke-width="0.602804"/>
<path d="M44.7929 33.0997L44.9408 34.2976H49.5607V21.3075C49.5607 16.7401 47.306 14.9062 41.5402 14.9062C39.8032 14.9062 38.1401 15.0557 36.514 15.4678L35.9224 19.7354C37.2161 19.2485 39.0641 18.9117 40.7272 18.9117C43.3512 18.9117 44.5341 19.8097 44.5341 21.6818V22.6924C43.4991 21.9439 42.0209 21.4945 40.3204 21.4945C36.1812 21.4945 33.2983 24.1525 33.2983 28.1205C33.2983 32.0891 36.1447 34.8592 40.2099 34.8592C42.1319 34.8592 43.684 34.2228 44.608 33.0997H44.7929ZM38.1031 28.0458C38.1031 26.3236 39.5078 25.0509 41.4663 25.0509C43.3882 25.0509 44.7559 26.3236 44.7559 28.0458C44.7559 29.8427 43.3886 31.1154 41.4667 31.1154C39.5078 31.1154 38.1031 29.8427 38.1031 28.0458Z" stroke="white" stroke-width="0.602804"/>
<path d="M69.7296 34.2976V21.0829C69.7296 17.3769 67.2531 14.831 63.4832 14.831C61.2289 14.831 59.307 15.7673 58.42 17.1148H58.272V15.3926H53.3193V34.2976H58.383V22.9546C58.383 20.5965 59.6767 19.099 61.7461 19.099C63.5941 19.099 64.703 20.3344 64.703 22.5803V34.2976H69.7296Z" stroke="white" stroke-width="0.602804"/>
<path d="M72.5337 24.8266C72.5337 30.7038 76.6359 34.8592 82.5866 34.8592C88.5368 34.8592 92.6395 30.7038 92.6395 24.8262C92.6395 18.9868 88.5368 14.8314 82.5866 14.8314C76.6359 14.8314 72.5337 18.9864 72.5337 24.8266ZM77.1906 24.7888C77.1906 21.4949 79.4449 19.0612 82.5866 19.0612C85.7279 19.0612 87.9826 21.4944 87.9826 24.7888C87.9826 28.1957 85.7279 30.629 82.5866 30.629C79.4449 30.629 77.1906 28.1957 77.1906 24.7888Z" stroke="white" stroke-width="0.602804"/>
<path d="M100.702 7.90588H95.6392V34.2976H100.702V7.90588Z" stroke="white" stroke-width="0.602804"/>
<path d="M115.232 33.0997L115.38 34.2976H120V21.3075C120 16.7401 117.745 14.9062 111.98 14.9062C110.243 14.9062 108.58 15.0557 106.953 15.4678L106.362 19.7354C107.656 19.2485 109.504 18.9117 111.167 18.9117C113.791 18.9117 114.974 19.8097 114.974 21.6818V22.6924C113.939 21.9439 112.46 21.4945 110.76 21.4945C106.621 21.4945 103.738 24.1525 103.738 28.1205C103.738 32.0891 106.584 34.8592 110.649 34.8592C112.571 34.8592 114.123 34.2228 115.047 33.0997H115.232ZM108.543 28.0458C108.543 26.3236 109.947 25.0509 111.906 25.0509C113.828 25.0509 115.195 26.3236 115.195 28.0458C115.195 29.8427 113.828 31.1154 111.906 31.1154C109.947 31.1154 108.543 29.8427 108.543 28.0458Z" stroke="white" stroke-width="0.602804"/>
<path d="M129 3.80065C129 2.25389 127.745 1 126.198 1C124.65 1 123.395 2.25389 123.395 3.80065V42.1994C123.395 43.7461 124.65 45 126.198 45C127.745 45 129 43.7461 129 42.1994V3.80065Z" stroke="white" stroke-width="0.602804"/>
<defs>
<linearGradient id="paint0_linear_242_3" x1="-324.97" y1="-14.437" x2="-324.97" y2="60.2712" gradientUnits="userSpaceOnUse">
<stop stop-color="white"/>
<stop offset="1" stop-color="white"/>
</linearGradient>
</defs>
</svg>
