<svg width="197" height="44" viewBox="0 0 197 44" fill="none" xmlns="http://www.w3.org/2000/svg">
<path d="M98.6859 10.9743C91.0539 10.9743 85.5513 15.8908 85.5513 23.3534C85.5513 30.816 91.7639 35.7325 99.3959 35.7325C104.011 35.7325 108.093 33.8888 110.578 30.9038L105.254 27.8309C103.834 29.3234 101.704 30.2014 99.3073 30.2014C96.0238 30.2014 93.1839 28.4455 92.1189 25.7239H111.554C111.732 24.9337 111.821 24.1436 111.821 23.3534C111.821 15.8908 106.318 10.9743 98.6859 10.9743ZM92.1189 20.8951C93.0061 18.1735 95.3138 16.4176 98.6859 16.4176C101.969 16.4176 104.366 18.1735 105.254 20.8951H92.1189ZM90.5212 3.42399L71.3523 36.347L52.0943 3.42399H59.2827L71.2632 23.968L83.3328 3.42399H90.5212ZM25.6478 0L51.2957 43.8974H0L25.6478 0ZM139.687 23.3534C139.687 27.4798 142.438 30.2014 146.609 30.2014C149.449 30.2014 151.579 28.8845 152.732 26.8652L158.057 29.938C155.839 33.5376 151.757 35.7325 146.609 35.7325C138.977 35.7325 133.474 30.816 133.474 23.3534C133.474 15.8908 138.977 10.9743 146.609 10.9743C151.667 10.9743 155.839 13.1692 158.057 16.7688L152.732 19.8416C151.667 17.7345 149.449 16.5054 146.609 16.5054C142.438 16.5054 139.687 19.227 139.687 23.3534ZM196.928 3.42399V34.9423H190.716V3.42399H196.928ZM173.322 10.9743C165.69 10.9743 160.187 15.8908 160.187 23.3534C160.187 30.816 166.4 35.7325 174.032 35.7325C178.647 35.7325 182.729 33.8888 185.214 30.9038L179.889 27.8309C178.469 29.3234 176.339 30.2014 173.943 30.2014C170.66 30.2014 167.82 28.4455 166.755 25.7239H186.19C186.366 24.9456 186.455 24.1507 186.456 23.3534C186.545 15.8908 180.954 10.9743 173.322 10.9743ZM166.755 20.8951C167.642 18.1735 169.95 16.4176 173.322 16.4176C176.694 16.4176 179.002 18.1735 179.889 20.8951H166.755ZM131.434 11.6767V18.3491C130.724 18.1735 130.014 17.9979 129.215 17.9979C125.221 17.9979 122.292 20.7196 122.292 24.8459V35.0301H116.08V11.6767H122.292V17.9979C122.292 14.4861 126.375 11.6767 131.434 11.6767Z" fill="white"/>
</svg>
